<svg width="231" height="84" viewBox="0 0 231 84" fill="none" xmlns="http://www.w3.org/2000/svg">
<path d="M230.033 81.0732H0V83.0755H230.033V81.0732Z" fill="#FF9000"/>
<path d="M230.033 0.982422H0V2.98468H230.033V0.982422Z" fill="#FF9000"/>
<path d="M53.2802 39.8024V53.8743C53.2802 55.0703 53.0365 56.2102 52.5489 57.2941C52.0989 58.3406 51.4801 59.2563 50.6926 60.0412C49.9051 60.8261 48.9675 61.4428 47.88 61.8913C46.8299 62.3772 45.7049 62.6201 44.5048 62.6201C43.3047 62.6201 42.1797 62.3959 41.1296 61.9474C40.0796 61.4989 39.1608 60.9009 38.3732 60.1534C37.5857 59.3685 36.9482 58.4715 36.4607 57.4623C36.0106 56.4158 35.7669 55.2945 35.7294 54.0985V43.7268C35.6169 42.5682 35.0918 41.7272 34.1543 41.204C34.6793 40.9423 35.2043 40.8115 35.7294 40.8115V27.5806C35.7669 26.3846 36.0106 25.2633 36.4607 24.2168C36.9482 23.1703 37.5857 22.2733 38.3732 21.5257C39.1608 20.7409 40.0796 20.1242 41.1296 19.6757C42.1797 19.2271 43.3047 19.0029 44.5048 19.0029C45.7049 19.0029 46.8299 19.2458 47.88 19.7317C48.9675 20.1802 49.9051 20.7969 50.6926 21.5818C51.4801 22.3667 52.0989 23.3011 52.5489 24.385C53.0365 25.4315 53.2802 26.5714 53.2802 27.8048C53.2802 28.4402 53.3365 28.9074 53.449 29.2064C53.599 29.5054 53.749 29.7484 53.899 29.9352C54.049 30.1221 54.1803 30.2903 54.2928 30.4398C54.4428 30.5893 54.5178 30.8322 54.5178 31.1686H51.5926C50.9926 31.0939 50.6926 30.7762 50.6926 30.2156C50.6926 30.7762 50.3926 31.0939 49.7925 31.1686H46.8112C46.8112 30.8322 46.8674 30.5893 46.9799 30.4398C47.1299 30.2903 47.2799 30.1221 47.4299 29.9352C47.5799 29.7484 47.7112 29.5054 47.8237 29.2064C47.9737 28.9074 48.0487 28.4215 48.0487 27.7488V27.6927C48.0487 27.2068 48.03 26.6275 47.9925 25.9547C47.955 25.2446 47.8237 24.5718 47.5987 23.9365C47.3737 23.3011 47.0174 22.7591 46.5299 22.3106C46.0424 21.8621 45.3673 21.6379 44.5048 21.6379C43.6048 21.6379 42.911 21.8808 42.4234 22.3667C41.9734 22.8152 41.6359 23.3571 41.4109 23.9925C41.1859 24.6279 41.0546 25.3007 41.0171 26.0108C40.9796 26.7209 40.9609 27.3189 40.9609 27.8048V40.8115C41.4859 40.8115 42.0109 40.9423 42.5359 41.204C41.5984 41.7272 41.0734 42.5682 40.9609 43.7268V53.8743C40.9609 54.3602 40.9796 54.9582 41.0171 55.6683C41.0546 56.3411 41.1859 57.0138 41.4109 57.6866C41.6359 58.322 41.9734 58.8639 42.4234 59.3124C42.911 59.7609 43.6048 59.9852 44.5048 59.9852C45.4048 59.9852 46.0799 59.7609 46.5299 59.3124C47.0174 58.8639 47.3737 58.322 47.5987 57.6866C47.8237 57.0138 47.955 56.3411 47.9925 55.6683C48.03 54.9582 48.0487 54.3602 48.0487 53.8743V42.3813C47.6362 42.4187 47.2799 42.5869 46.9799 42.8859C46.7174 43.1849 46.5861 43.5399 46.5861 43.9511V44.0071C46.5486 44.5678 46.3986 45.0536 46.1361 45.4648C45.9111 45.8385 45.5736 46.1749 45.1236 46.4739C44.6736 46.7355 44.0173 46.8664 43.1547 46.8664V39.8024H53.2802ZM38.767 38.1765C38.767 37.9523 38.7483 37.728 38.7108 37.5038C38.7108 37.2795 38.7108 37.074 38.7108 36.8871V35.5976C38.6733 34.7754 38.6545 33.9905 38.6545 33.243C38.6545 32.4955 38.6358 31.7853 38.5983 31.1126C38.5608 30.7762 38.542 30.4772 38.542 30.2156C38.542 29.9165 38.5233 29.6175 38.4858 29.3185C38.4858 29.0569 38.467 28.814 38.4295 28.5897C38.4295 28.3281 38.4295 28.1038 38.4295 27.917C38.4295 27.7301 38.4108 27.5619 38.3732 27.4124C38.3732 27.2629 38.3732 27.1321 38.3732 27.0199V26.7396C38.3357 26.7396 38.317 26.7583 38.317 26.7957V27.0199C38.317 27.1321 38.2982 27.2629 38.2607 27.4124C38.2607 27.5619 38.2607 27.7301 38.2607 27.917C38.2607 28.1038 38.242 28.3281 38.2045 28.5897C38.2045 28.814 38.2045 29.0569 38.2045 29.3185C38.167 29.6175 38.1482 29.9165 38.1482 30.2156C38.1482 30.4772 38.1295 30.7762 38.092 31.1126C38.0545 31.7853 38.0357 32.4955 38.0357 33.243C38.0357 33.9905 38.017 34.7754 37.9795 35.5976V36.8871C37.9795 37.074 37.9607 37.2795 37.9232 37.5038C37.9232 37.728 37.9232 37.9523 37.9232 38.1765V43.3904C37.9232 43.5026 37.9232 43.6147 37.9232 43.7268C37.9607 43.8389 37.9795 43.9324 37.9795 44.0071V45.9133C37.9795 46.3244 37.9795 46.7355 37.9795 47.1467C38.017 47.5204 38.0357 47.8942 38.0357 48.2679C38.0357 48.6791 38.0357 49.0715 38.0357 49.4453C38.0732 49.7816 38.092 50.0993 38.092 50.3983C38.1295 50.7347 38.1482 51.0524 38.1482 51.3514C38.1482 51.6504 38.167 51.9307 38.2045 52.1924C38.2045 52.4914 38.2045 52.753 38.2045 52.9773C38.242 53.2015 38.2607 53.4071 38.2607 53.5939C38.2607 53.7808 38.2607 53.949 38.2607 54.0985C38.2982 54.248 38.317 54.3788 38.317 54.491V54.7713C38.317 54.8087 38.3357 54.8273 38.3732 54.8273V54.491C38.3732 54.3788 38.3732 54.248 38.3732 54.0985C38.4108 53.949 38.4295 53.7808 38.4295 53.5939C38.4295 53.4071 38.4295 53.2015 38.4295 52.9773C38.467 52.753 38.4858 52.4914 38.4858 52.1924C38.5233 51.9307 38.542 51.6504 38.542 51.3514C38.542 51.0524 38.5608 50.7347 38.5983 50.3983C38.5983 50.0993 38.5983 49.7816 38.5983 49.4453C38.6358 49.0715 38.6545 48.6791 38.6545 48.2679C38.6545 47.8942 38.6545 47.5204 38.6545 47.1467C38.692 46.7355 38.7108 46.3244 38.7108 45.9133V44.6799C38.7108 44.3809 38.7295 44.1566 38.767 44.0071V38.1765ZM51.0301 46.3057C50.9926 45.932 50.9739 45.5956 50.9739 45.2966C50.9739 44.9602 50.9551 44.6425 50.9176 44.3435C50.8801 43.7829 50.8238 43.3157 50.7488 42.9419C50.7488 42.8672 50.7301 42.7924 50.6926 42.7177C50.6926 42.6429 50.6926 42.5869 50.6926 42.5495V42.3813L50.6363 42.4374V42.5495C50.6363 42.5869 50.6176 42.6429 50.5801 42.7177C50.5801 42.7924 50.5801 42.8672 50.5801 42.9419C50.5051 43.3157 50.4488 43.7829 50.4113 44.3435C50.3738 44.6425 50.3551 44.9602 50.3551 45.2966C50.3551 45.5956 50.3363 45.932 50.2988 46.3057V46.8664C50.2988 46.9785 50.2801 47.0906 50.2426 47.2027C50.2426 47.2775 50.2426 47.3522 50.2426 47.427V49.7816C50.2426 49.8938 50.2613 49.9872 50.2988 50.062V50.9029C50.2988 51.0898 50.2988 51.258 50.2988 51.4075C50.3363 51.557 50.3551 51.7252 50.3551 51.912C50.3551 52.0989 50.3551 52.2671 50.3551 52.4166C50.3926 52.5661 50.4113 52.7156 50.4113 52.8651C50.4488 53.0146 50.4676 53.1641 50.4676 53.3136C50.4676 53.4258 50.4863 53.5379 50.5238 53.65C50.5238 53.7621 50.5238 53.8743 50.5238 53.9864C50.5613 54.0985 50.5801 54.192 50.5801 54.2667C50.5801 54.3415 50.5801 54.4162 50.5801 54.491C50.6176 54.5657 50.6363 54.6218 50.6363 54.6591V54.7713C50.6363 54.8087 50.6551 54.8273 50.6926 54.8273V54.6591C50.6926 54.6218 50.6926 54.5657 50.6926 54.491C50.7301 54.4162 50.7488 54.3415 50.7488 54.2667C50.7488 54.192 50.7488 54.0985 50.7488 53.9864C50.7863 53.8743 50.8051 53.7621 50.8051 53.65C50.8426 53.5379 50.8613 53.4258 50.8613 53.3136C50.8613 53.1641 50.8801 53.0146 50.9176 52.8651C50.9176 52.7156 50.9176 52.5661 50.9176 52.4166C50.9551 52.2671 50.9739 52.0989 50.9739 51.912C50.9739 51.7252 50.9739 51.557 50.9739 51.4075C51.0114 51.258 51.0301 51.0898 51.0301 50.9029V50.3423C51.0301 50.1928 51.0489 50.0993 51.0864 50.062V47.427C51.0864 47.3522 51.0676 47.2775 51.0301 47.2027C51.0301 47.0906 51.0301 46.9785 51.0301 46.8664V46.3057Z" fill="#F4EDE8"/>
<path d="M73.7158 40.8673C74.3533 40.8673 74.8783 40.9981 75.2908 41.2597C74.8783 41.5214 74.5221 41.8764 74.222 42.3249C73.9595 42.7734 73.7908 43.2593 73.7158 43.7826V52.2481C73.6783 53.4442 73.4157 54.5654 72.9282 55.6119C72.4782 56.6211 71.8594 57.5181 71.0719 58.303C70.2844 59.0505 69.3656 59.6485 68.3155 60.097C67.2655 60.5455 66.1404 60.7698 64.9403 60.7698C63.7403 60.7698 62.6152 60.5455 61.5652 60.097C60.5151 59.6485 59.5963 59.0505 58.8088 58.303C58.0213 57.5181 57.3837 56.6211 56.8962 55.6119C56.4462 54.5654 56.2024 53.4442 56.1649 52.2481V43.7826C56.0524 42.6239 55.5274 41.783 54.5898 41.2597C55.0024 40.9981 55.5274 40.8673 56.1649 40.8673V30.0471C56.2024 28.8884 56.4462 27.7858 56.8962 26.7393C57.3837 25.6928 58.0213 24.7958 58.8088 24.0483C59.5963 23.2634 60.5151 22.6467 61.5652 22.1982C62.6152 21.7497 63.7403 21.5254 64.9403 21.5254C66.1404 21.5254 67.2655 21.7497 68.3155 22.1982C69.3656 22.6467 70.2844 23.2634 71.0719 24.0483C71.8594 24.7958 72.4782 25.6928 72.9282 26.7393C73.4157 27.7858 73.6783 28.8884 73.7158 30.0471V40.8673ZM59.2026 38.849C59.2026 38.6621 59.1838 38.4939 59.1463 38.3444C59.1463 38.1576 59.1463 37.9707 59.1463 37.7838V36.7186C59.1088 36.0085 59.0901 35.3357 59.0901 34.7003C59.0901 34.0649 59.0713 33.4669 59.0338 32.9063C58.9963 32.6447 58.9776 32.383 58.9776 32.1214C58.9776 31.8598 58.9588 31.6168 58.9213 31.3926C58.9213 31.1683 58.9026 30.9628 58.8651 30.7759C58.8651 30.589 58.8651 30.4208 58.8651 30.2713C58.8651 30.0844 58.8463 29.9349 58.8088 29.8228C58.8088 29.6733 58.8088 29.5612 58.8088 29.4864V29.2061C58.7713 29.2061 58.7525 29.2248 58.7525 29.2622V29.4864C58.7525 29.5612 58.7338 29.6733 58.6963 29.8228C58.6963 29.9349 58.6963 30.0844 58.6963 30.2713C58.6963 30.4208 58.6775 30.589 58.64 30.7759C58.64 30.9628 58.64 31.1683 58.64 31.3926C58.6025 31.6168 58.5838 31.8598 58.5838 32.1214C58.5838 32.383 58.565 32.6447 58.5275 32.9063C58.49 33.4669 58.4713 34.0649 58.4713 34.7003C58.4713 35.3357 58.4525 36.0085 58.415 36.7186V37.7838C58.415 37.9707 58.3963 38.1576 58.3588 38.3444C58.3588 38.4939 58.3588 38.6621 58.3588 38.849V43.278C58.3588 43.5396 58.3775 43.7265 58.415 43.8386V45.4645C58.415 45.8009 58.415 46.1372 58.415 46.4736C58.4525 46.81 58.4713 47.1277 58.4713 47.4267C58.4713 47.7631 58.4713 48.0808 58.4713 48.3798C58.5088 48.6414 58.5275 48.9217 58.5275 49.2207C58.565 49.5197 58.5838 49.8 58.5838 50.0617C58.5838 50.2859 58.6025 50.5102 58.64 50.7344C58.64 50.9587 58.64 51.1642 58.64 51.3511C58.6775 51.538 58.6963 51.7249 58.6963 51.9117C58.6963 52.0986 58.6963 52.2668 58.6963 52.4163C58.7338 52.5284 58.7525 52.6219 58.7525 52.6966V52.8648C58.7525 52.9022 58.7713 52.9209 58.8088 52.9209V52.6966C58.8088 52.6219 58.8088 52.5284 58.8088 52.4163C58.8463 52.2668 58.8651 52.0986 58.8651 51.9117C58.8651 51.7249 58.8651 51.538 58.8651 51.3511C58.9026 51.1642 58.9213 50.9587 58.9213 50.7344C58.9588 50.5102 58.9776 50.2859 58.9776 50.0617C58.9776 49.8 58.9963 49.5197 59.0338 49.2207C59.0338 48.9217 59.0338 48.6414 59.0338 48.3798C59.0713 48.0808 59.0901 47.7631 59.0901 47.4267C59.0901 47.1277 59.0901 46.81 59.0901 46.4736C59.1276 46.1372 59.1463 45.8009 59.1463 45.4645V43.8386C59.1838 43.7265 59.2026 43.5396 59.2026 43.278V38.849ZM68.4843 30.2713C68.4843 29.7854 68.4655 29.1874 68.428 28.4773C68.3905 27.7672 68.2593 27.0944 68.0342 26.459C67.8092 25.8236 67.453 25.2817 66.9654 24.8332C66.5154 24.3473 65.8404 24.1044 64.9403 24.1044C64.0403 24.1044 63.3465 24.3473 62.859 24.8332C62.409 25.2817 62.0715 25.8236 61.8464 26.459C61.6214 27.0944 61.4902 27.7672 61.4527 28.4773C61.4152 29.1874 61.3964 29.7854 61.3964 30.2713V40.8673C62.034 40.8673 62.559 40.9981 62.9715 41.2597C62.034 41.783 61.5089 42.6239 61.3964 43.7826V52.0239C61.3964 52.5098 61.4152 53.1078 61.4527 53.8179C61.4902 54.4907 61.6214 55.1634 61.8464 55.8362C62.0715 56.4716 62.409 57.0135 62.859 57.462C63.3465 57.9105 64.0403 58.1348 64.9403 58.1348C65.8404 58.1348 66.5154 57.9105 66.9654 57.462C67.453 57.0135 67.8092 56.4716 68.0342 55.8362C68.2593 55.1634 68.3905 54.4907 68.428 53.8179C68.4655 53.1078 68.4843 52.5098 68.4843 52.0239V43.7826C68.4093 42.6613 67.8842 41.8204 66.9092 41.2597C67.3217 40.9981 67.8467 40.8673 68.4843 40.8673V30.2713ZM71.5219 38.849C71.5219 38.6621 71.5219 38.4939 71.5219 38.3444C71.5219 38.1576 71.5032 37.9707 71.4657 37.7838V36.7186C71.4657 36.0085 71.4469 35.3357 71.4094 34.7003C71.4094 34.0649 71.3907 33.4669 71.3531 32.9063C71.3156 32.6447 71.2969 32.383 71.2969 32.1214C71.2969 31.8598 71.2781 31.6168 71.2406 31.3926C71.2406 31.1683 71.2219 30.9628 71.1844 30.7759C71.1844 30.589 71.1844 30.4208 71.1844 30.2713C71.1844 30.0844 71.1656 29.9349 71.1281 29.8228C71.1281 29.6733 71.1281 29.5612 71.1281 29.4864V29.2061C71.0906 29.2061 71.0719 29.2248 71.0719 29.2622V29.4864C71.0719 29.5612 71.0719 29.6733 71.0719 29.8228C71.0719 29.9349 71.0531 30.0844 71.0156 30.2713C71.0156 30.4208 70.9969 30.589 70.9594 30.7759C70.9594 30.9628 70.9594 31.1683 70.9594 31.3926C70.9219 31.6168 70.9031 31.8598 70.9031 32.1214C70.9031 32.383 70.8844 32.6447 70.8469 32.9063C70.8094 33.4669 70.7906 34.0649 70.7906 34.7003C70.7906 35.3357 70.7719 36.0085 70.7344 36.7186V38.849C70.6969 39.2228 70.6781 39.5965 70.6781 39.9703C70.6781 40.344 70.6781 40.7178 70.6781 41.0915C70.6781 41.4653 70.6781 41.839 70.6781 42.2128C70.6781 42.5492 70.6969 42.9042 70.7344 43.278V45.4645C70.7344 45.8009 70.7344 46.1372 70.7344 46.4736C70.7719 46.81 70.7906 47.1277 70.7906 47.4267C70.7906 47.7631 70.7906 48.0808 70.7906 48.3798C70.8281 48.6414 70.8469 48.9217 70.8469 49.2207C70.8844 49.5197 70.9031 49.8 70.9031 50.0617C70.9031 50.2859 70.9219 50.5102 70.9594 50.7344C70.9594 50.9587 70.9594 51.1642 70.9594 51.3511C70.9969 51.538 71.0156 51.7249 71.0156 51.9117C71.0531 52.0986 71.0719 52.2668 71.0719 52.4163C71.0719 52.5284 71.0719 52.6219 71.0719 52.6966V52.8648C71.0719 52.9022 71.0906 52.9209 71.1281 52.9209V52.6966C71.1281 52.6219 71.1281 52.5284 71.1281 52.4163C71.1656 52.2668 71.1844 52.0986 71.1844 51.9117C71.1844 51.7249 71.1844 51.538 71.1844 51.3511C71.2219 51.1642 71.2406 50.9587 71.2406 50.7344C71.2781 50.5102 71.2969 50.2859 71.2969 50.0617C71.2969 49.8 71.3156 49.5197 71.3531 49.2207C71.3531 48.9217 71.3531 48.6414 71.3531 48.3798C71.3907 48.0808 71.4094 47.7631 71.4094 47.4267C71.4094 47.1277 71.4094 46.81 71.4094 46.4736C71.4469 46.1372 71.4657 45.8009 71.4657 45.4645V44.3993C71.4657 44.3245 71.4657 44.2311 71.4657 44.119C71.5032 44.0068 71.5219 43.9134 71.5219 43.8386V38.849Z" fill="#F4EDE8"/>
<path d="M94.5907 33.6354C94.5907 35.3173 94.1782 36.831 93.3531 38.1765C92.5281 39.5221 91.4218 40.5686 90.0342 41.3161C90.7093 41.8393 91.328 42.456 91.8906 43.1662C92.4531 43.8389 92.9219 44.5864 93.2969 45.4087C93.7094 46.231 94.0283 47.0719 94.2533 47.9316C94.4783 48.7912 94.5907 49.6321 94.5907 50.4544V54.0425C94.5532 55.2385 94.3094 56.3597 93.8594 57.4063C93.4094 58.4154 92.7906 59.3124 92.0031 60.0973C91.2155 60.8448 90.2967 61.4428 89.2467 61.8913C88.1966 62.3772 87.0716 62.6201 85.8715 62.6201H80.5838C80.3213 62.6201 80.0962 62.5267 79.9087 62.3398C79.7587 62.1529 79.6837 61.9287 79.6837 61.6671C79.6837 61.9287 79.59 62.1529 79.4025 62.3398C79.2149 62.5267 79.0087 62.6201 78.7837 62.6201H75.8023C75.8023 62.2838 75.8585 62.0408 75.971 61.8913C76.1211 61.7418 76.2712 61.5736 76.4212 61.3868C76.5712 61.2372 76.7023 61.013 76.8148 60.714C76.9648 60.415 77.0398 59.9478 77.0398 59.3124V43.6707C76.9273 42.5495 76.4023 41.7272 75.4648 41.204C75.9523 40.905 76.4773 40.7555 77.0398 40.7555V22.3106C77.0398 21.6752 76.9648 21.2081 76.8148 20.909C76.7023 20.61 76.5712 20.3858 76.4212 20.2363C76.2712 20.0494 76.1211 19.8812 75.971 19.7317C75.8585 19.5822 75.8023 19.3393 75.8023 19.0029H78.7837C79.0087 19.0029 79.2149 19.0963 79.4025 19.2832C79.59 19.4327 79.6837 19.6383 79.6837 19.8999C79.6837 19.3019 79.9837 19.0029 80.5838 19.0029H85.8715C87.0716 19.0029 88.1966 19.2271 89.2467 19.6757C90.2967 20.1242 91.2155 20.7409 92.0031 21.5257C92.7906 22.2733 93.4094 23.1703 93.8594 24.2168C94.3094 25.2633 94.5532 26.3659 94.5907 27.5245V33.6354ZM80.0775 37.7841C80.0775 37.5225 80.0587 37.2795 80.0212 37.0553C80.0212 36.7936 80.0212 36.5507 80.0212 36.3265V34.8688C79.9837 33.897 79.965 32.9813 79.965 32.1217C79.965 31.2621 79.9462 30.4585 79.9087 29.711C79.8712 29.2999 79.8525 28.9261 79.8525 28.5897C79.8525 28.2533 79.8337 27.9356 79.7962 27.6366C79.7962 27.3376 79.7775 27.0573 79.74 26.7957C79.74 26.4967 79.74 26.2537 79.74 26.0669C79.74 25.8426 79.7212 25.6371 79.6837 25.4502C79.6837 25.2633 79.6837 25.1138 79.6837 25.0017V24.6653C79.6462 24.7027 79.6275 24.74 79.6275 24.7774V25.0017C79.6275 25.1138 79.6087 25.2633 79.5712 25.4502C79.5712 25.6371 79.5712 25.8426 79.5712 26.0669C79.5712 26.2537 79.5525 26.4967 79.515 26.7957C79.515 27.0573 79.515 27.3376 79.515 27.6366C79.4775 27.9356 79.4587 28.2533 79.4587 28.5897C79.4587 28.9261 79.44 29.2999 79.4025 29.711C79.365 30.4585 79.3462 31.2621 79.3462 32.1217C79.3462 32.9813 79.3275 33.897 79.29 34.8688V36.3265C79.29 36.5507 79.29 36.7936 79.29 37.0553C79.29 37.2795 79.2712 37.5225 79.2337 37.7841V43.7829C79.2337 43.9324 79.2337 44.0632 79.2337 44.1753C79.2712 44.2874 79.29 44.4183 79.29 44.5678V46.6982C79.29 47.184 79.29 47.6699 79.29 48.1558C79.3275 48.6043 79.3462 49.0341 79.3462 49.4453C79.3462 49.8564 79.3462 50.2675 79.3462 50.6787C79.3837 51.0898 79.4025 51.5009 79.4025 51.912C79.44 52.0989 79.4587 52.2858 79.4587 52.4727C79.4587 52.6222 79.4587 52.7904 79.4587 52.9773C79.4587 53.1641 79.4587 53.3323 79.4587 53.4818C79.4962 53.6313 79.515 53.7808 79.515 53.9303C79.515 54.2293 79.515 54.5283 79.515 54.8273C79.5525 55.089 79.5712 55.3319 79.5712 55.5562C79.5712 55.7804 79.5712 55.986 79.5712 56.1729C79.6087 56.3224 79.6275 56.4532 79.6275 56.5653V56.8456C79.6275 56.883 79.6462 56.9204 79.6837 56.9577V56.5653C79.6837 56.4532 79.6837 56.3224 79.6837 56.1729C79.7212 55.986 79.74 55.7804 79.74 55.5562C79.74 55.3319 79.74 55.089 79.74 54.8273C79.7775 54.5283 79.7962 54.2293 79.7962 53.9303C79.8337 53.7808 79.8525 53.6313 79.8525 53.4818C79.8525 53.3323 79.8525 53.1641 79.8525 52.9773C79.8525 52.7904 79.8525 52.6222 79.8525 52.4727C79.89 52.2858 79.9087 52.0989 79.9087 51.912C79.9087 51.5009 79.9087 51.0898 79.9087 50.6787C79.9462 50.2675 79.965 49.8564 79.965 49.4453C79.965 49.0341 79.965 48.6043 79.965 48.1558C80.0025 47.6699 80.0212 47.184 80.0212 46.6982V45.2966C80.0212 44.9602 80.04 44.7173 80.0775 44.5678V37.7841ZM91.6656 52.9212C91.6281 53.0333 91.6093 53.2202 91.6093 53.4818V54.491C91.6093 54.6778 91.5905 54.846 91.553 54.9955C91.553 55.145 91.553 55.2945 91.553 55.444C91.553 55.5935 91.5343 55.7244 91.4968 55.8365C91.4968 55.9486 91.4968 56.0607 91.4968 56.1729V56.3411C91.4593 56.3784 91.4405 56.4345 91.4405 56.5092V56.7896C91.403 56.8269 91.3843 56.8643 91.3843 56.9017V57.0138C91.3843 57.0512 91.3655 57.0886 91.328 57.1259C91.328 57.1259 91.328 57.1446 91.328 57.182C91.328 57.2194 91.3094 57.2568 91.2719 57.2941H91.328C91.328 57.2941 91.3468 57.2568 91.3843 57.182C91.3843 57.182 91.403 57.1446 91.4405 57.0699C91.478 57.0325 91.4968 56.9951 91.4968 56.9577C91.5343 56.9204 91.553 56.883 91.553 56.8456C91.5905 56.8082 91.6093 56.7709 91.6093 56.7335C91.6468 56.6961 91.6656 56.6401 91.6656 56.5653C91.7407 56.4906 91.7781 56.3971 91.7781 56.285C91.8531 56.1355 91.9281 55.8739 92.0031 55.5001C92.0781 55.2758 92.1156 55.1263 92.1156 55.0516C92.1531 54.9768 92.1718 54.9021 92.1718 54.8273C92.1718 54.7152 92.1906 54.6218 92.2281 54.547C92.2281 54.4723 92.2281 54.3975 92.2281 54.3228C92.2656 54.2106 92.2843 54.1172 92.2843 54.0425C92.3218 53.9303 92.3406 53.7621 92.3406 53.5379C92.3781 53.351 92.3969 53.1641 92.3969 52.9773C92.3969 52.7904 92.4156 52.6035 92.4531 52.4166V50.062C92.4531 49.8751 92.4344 49.6882 92.3969 49.5013C92.3969 49.3145 92.3781 49.1276 92.3406 48.9407C92.3406 48.7164 92.3218 48.5483 92.2843 48.4361C92.2843 48.3614 92.2656 48.2866 92.2281 48.2119C92.2281 48.0997 92.2281 48.0063 92.2281 47.9316C92.1906 47.8568 92.1718 47.7821 92.1718 47.7073C92.1718 47.5952 92.1531 47.5017 92.1156 47.427C92.1156 47.3522 92.0968 47.2775 92.0593 47.2027C92.0593 47.128 92.0593 47.0532 92.0593 46.9785C91.9843 46.7542 91.9468 46.6234 91.9468 46.586C91.9093 46.4739 91.8531 46.3431 91.7781 46.1936C91.7781 46.0815 91.7407 45.988 91.6656 45.9133C91.6656 45.8012 91.628 45.7077 91.553 45.633C91.478 45.4835 91.4218 45.3713 91.3843 45.2966C91.3468 45.2592 91.328 45.2218 91.328 45.1845H91.2719C91.2719 45.1845 91.2905 45.2218 91.328 45.2966C91.328 45.334 91.328 45.3713 91.328 45.4087C91.3655 45.4087 91.3843 45.4274 91.3843 45.4648C91.3843 45.5395 91.403 45.6143 91.4405 45.689V45.9693C91.478 46.0441 91.4968 46.1375 91.4968 46.2497C91.4968 46.4365 91.5155 46.5674 91.553 46.6421V47.0345C91.5905 47.184 91.6093 47.3335 91.6093 47.4831C91.6093 47.6326 91.6093 47.8007 91.6093 47.9876V48.4922C91.6093 48.5669 91.6093 48.6604 91.6093 48.7725C91.6468 48.8473 91.6656 48.922 91.6656 48.9968V52.9212ZM89.3592 50.4544C89.3592 49.9685 89.3404 49.2771 89.3029 48.3801C89.2654 47.4831 89.1342 46.586 88.9092 45.689C88.6842 44.792 88.3279 44.0258 87.8404 43.3904C87.3903 42.7177 86.7153 42.3813 85.8153 42.3813H83.7902C83.3777 42.3813 83.0214 42.5308 82.7214 42.8298C82.4214 43.1288 82.2713 43.4839 82.2713 43.895V58.4715C82.2713 58.8826 82.4214 59.2377 82.7214 59.5367C83.0214 59.7983 83.3777 59.9478 83.7902 59.9852H85.8153C86.7153 59.9852 87.3903 59.7609 87.8404 59.3124C88.3279 58.8265 88.6842 58.2659 88.9092 57.6305C89.1342 56.9951 89.2654 56.3224 89.3029 55.6122C89.3404 54.9021 89.3592 54.3041 89.3592 53.8182V50.4544ZM89.3592 27.7488C89.3592 27.2629 89.3404 26.6836 89.3029 26.0108C89.2654 25.3007 89.1342 24.6279 88.9092 23.9925C88.6842 23.3571 88.3279 22.8152 87.8404 22.3667C87.3903 21.8808 86.7153 21.6379 85.8153 21.6379H83.7902C83.3777 21.6379 83.0214 21.7874 82.7214 22.0864C82.4214 22.3854 82.2713 22.7404 82.2713 23.1516V38.2326C82.2713 38.6437 82.4214 38.9988 82.7214 39.2978C83.0214 39.5968 83.3777 39.7463 83.7902 39.7463H85.8153C86.7153 39.7463 87.3903 39.5221 87.8404 39.0736C88.3279 38.6251 88.6842 38.0831 88.9092 37.4477C89.1342 36.775 89.2654 36.1022 89.3029 35.4294C89.3404 34.7193 89.3592 34.1213 89.3592 33.6354V27.7488ZM91.8906 35.1491C91.9656 34.9249 92.0031 34.7754 92.0031 34.7006C92.0781 34.5511 92.1156 34.4016 92.1156 34.2521C92.1531 34.1774 92.1718 34.1026 92.1718 34.0279C92.1718 33.9157 92.1906 33.8223 92.2281 33.7475C92.2281 33.6728 92.2281 33.598 92.2281 33.5233C92.2656 33.4112 92.2843 33.299 92.2843 33.1869C92.3218 33.0748 92.3406 32.8879 92.3406 32.6263C92.3781 32.4394 92.3969 32.2525 92.3969 32.0656C92.3969 31.8788 92.4156 31.6919 92.4531 31.505V30.2716C92.4531 29.8605 92.4531 29.468 92.4531 29.0943C92.4531 28.6832 92.4344 28.2907 92.3969 27.917C92.3594 27.8048 92.3406 27.7114 92.3406 27.6366C92.3406 27.5245 92.3218 27.4311 92.2843 27.3563C92.2843 27.0947 92.2656 26.9078 92.2281 26.7957C92.1906 26.6088 92.1531 26.4406 92.1156 26.2911C92.1156 26.1416 92.0968 25.9921 92.0593 25.8426C91.9843 25.6184 91.9468 25.4689 91.9468 25.3941C91.8718 25.2446 91.8344 25.1325 91.8344 25.0577C91.7594 24.9082 91.7032 24.7961 91.6656 24.7214C91.6656 24.6092 91.628 24.5158 91.553 24.441C91.5155 24.3289 91.4593 24.1981 91.3843 24.0486L91.2719 23.9365V23.9925C91.2719 24.0299 91.2719 24.0486 91.2719 24.0486C91.3094 24.0486 91.328 24.0673 91.328 24.1047C91.3655 24.142 91.3843 24.1981 91.3843 24.2728C91.3843 24.3476 91.403 24.4223 91.4405 24.4971V24.7774C91.478 24.8522 91.4968 24.9643 91.4968 25.1138C91.4968 25.1885 91.4968 25.2633 91.4968 25.338C91.5343 25.3754 91.553 25.4315 91.553 25.5062V25.8987C91.5905 26.0482 91.6093 26.1977 91.6093 26.3472C91.6093 26.4967 91.6093 26.6649 91.6093 26.8518V27.4124C91.6093 27.4871 91.6093 27.5806 91.6093 27.6927C91.6468 27.7675 91.6656 27.8422 91.6656 27.917V32.0656C91.6281 32.1778 91.6093 32.3646 91.6093 32.6263V33.6915C91.6093 33.8784 91.5905 34.0465 91.553 34.196C91.553 34.3456 91.553 34.4951 91.553 34.6446C91.553 34.7941 91.5343 34.9436 91.4968 35.0931C91.4968 35.2052 91.4968 35.3173 91.4968 35.4294C91.4968 35.6163 91.478 35.7284 91.4405 35.7658V36.1022C91.403 36.1022 91.3843 36.1396 91.3843 36.2143V36.3265C91.3843 36.3638 91.3655 36.4012 91.328 36.4386C91.328 36.4386 91.328 36.4573 91.328 36.4946C91.328 36.532 91.3094 36.5694 91.2719 36.6068L91.3843 36.4946C91.3843 36.4573 91.3843 36.4386 91.3843 36.4386C91.4218 36.4012 91.4405 36.3638 91.4405 36.3265C91.478 36.3265 91.4968 36.2891 91.4968 36.2143C91.5343 36.2143 91.553 36.177 91.553 36.1022C91.5905 36.1022 91.6093 36.0648 91.6093 35.9901C91.6468 35.9527 91.6656 35.8966 91.6656 35.8219C91.7407 35.7471 91.7781 35.6537 91.7781 35.5416C91.8531 35.3173 91.8906 35.1865 91.8906 35.1491Z" fill="#F4EDE8"/>
<path d="M115.867 57.406C116.017 58.0413 116.186 58.5085 116.373 58.8075C116.561 59.1065 116.748 59.3495 116.936 59.5364C117.123 59.7232 117.292 59.8914 117.442 60.0409C117.592 60.1904 117.705 60.4334 117.78 60.7698H114.798C114.536 60.7698 114.292 60.6763 114.067 60.4894C113.879 60.3026 113.767 60.0783 113.729 59.8167C113.767 60.0783 113.711 60.3026 113.561 60.4894C113.411 60.6763 113.223 60.7698 112.998 60.7698H110.017C109.942 60.4334 109.961 60.1904 110.073 60.0409C110.186 59.8914 110.298 59.7419 110.411 59.5924C110.523 59.4055 110.617 59.1626 110.692 58.8636C110.767 58.5272 110.748 58.0227 110.636 57.3499V57.2938L109.398 50.9587C109.323 50.5849 109.117 50.2672 108.779 50.0056C108.442 49.7066 108.067 49.5571 107.654 49.5571H103.773C103.36 49.5571 102.985 49.7066 102.648 50.0056C102.31 50.2672 102.104 50.5849 102.029 50.9587L100.848 57.2938V57.3499C100.735 58.0227 100.698 58.5272 100.735 58.8636C100.81 59.1626 100.904 59.4055 101.016 59.5924C101.166 59.7419 101.279 59.8914 101.354 60.0409C101.466 60.1904 101.504 60.4334 101.466 60.7698H98.4845C98.222 60.7698 98.0158 60.6763 97.8658 60.4894C97.7158 60.3026 97.6595 60.0783 97.697 59.8167C97.6595 60.0783 97.547 60.3026 97.3595 60.4894C97.172 60.6763 96.947 60.7698 96.6845 60.7698H93.7031C93.7406 60.4334 93.8343 60.1904 93.9843 60.0409C94.1343 59.8914 94.3031 59.7232 94.4906 59.5364C94.6781 59.3495 94.8656 59.1065 95.0531 58.8075C95.2406 58.5085 95.4094 58.0413 95.5594 57.406L98.0908 43.7826C98.1658 43.2593 98.1095 42.7734 97.922 42.3249C97.7345 41.8764 97.4345 41.5214 97.022 41.2597C97.622 40.9981 98.1658 40.8673 98.6533 40.8673L101.691 24.8892C101.804 24.2539 101.823 23.7867 101.748 23.4877C101.673 23.1513 101.579 22.9083 101.466 22.7588C101.354 22.572 101.241 22.4038 101.129 22.2543C101.016 22.1048 100.998 21.8618 101.073 21.5254H104.841C105.404 21.6002 105.685 21.9179 105.685 22.4785C105.685 22.2169 105.76 22.0113 105.91 21.8618C106.098 21.6749 106.304 21.5628 106.529 21.5254H110.354C110.429 21.8618 110.411 22.1048 110.298 22.2543C110.223 22.4038 110.129 22.572 110.017 22.7588C109.904 22.9083 109.81 23.1513 109.735 23.4877C109.66 23.7867 109.679 24.2539 109.792 24.8892L112.773 40.8673C113.073 40.8673 113.354 40.9047 113.617 40.9794C113.879 41.0542 114.142 41.1476 114.404 41.2597C113.579 41.783 113.223 42.6239 113.336 43.7826L115.867 57.406ZM102.366 37.3353C102.441 37.111 102.479 36.9055 102.479 36.7186C102.516 36.4943 102.554 36.2888 102.591 36.1019C102.779 35.2423 102.929 34.4387 103.041 33.6912C103.154 32.9063 103.266 32.1962 103.379 31.5608C103.454 31.2618 103.491 30.9628 103.491 30.6638C103.529 30.3648 103.566 30.0658 103.604 29.7667C103.641 29.5051 103.679 29.2622 103.716 29.0379C103.754 28.8137 103.791 28.6081 103.829 28.4212C103.866 28.2344 103.885 28.0662 103.885 27.9167C103.885 27.7298 103.904 27.5803 103.941 27.4682V27.2439L103.885 27.4682C103.848 27.5803 103.81 27.7111 103.773 27.8606C103.735 28.0101 103.698 28.1783 103.66 28.3652C103.585 28.552 103.529 28.7763 103.491 29.0379C103.454 29.2622 103.398 29.4864 103.323 29.7107C103.248 30.0097 103.173 30.3087 103.098 30.6077C103.06 30.9067 103.004 31.2057 102.929 31.5047C102.741 32.1401 102.554 32.8315 102.366 33.5791C102.216 34.2892 102.048 35.0741 101.86 35.9337C101.86 36.158 101.841 36.3635 101.804 36.5504C101.766 36.7373 101.71 36.9429 101.635 37.1671C101.598 37.3914 101.56 37.6156 101.523 37.8399C101.485 38.0267 101.448 38.2323 101.41 38.4566C101.298 38.8677 101.185 39.2975 101.073 39.746C100.998 40.1945 100.923 40.643 100.848 41.0915C100.773 41.5027 100.679 41.9325 100.566 42.381C100.491 42.8295 100.416 43.2593 100.341 43.6704C100.304 43.7826 100.285 43.8947 100.285 44.0068C100.285 44.0816 100.266 44.175 100.229 44.2871C100.154 44.5861 100.116 44.8104 100.116 44.9599C100.004 45.3337 99.9284 45.7448 99.8909 46.1933C99.8159 46.6044 99.7409 47.0156 99.6659 47.4267C99.5908 47.8378 99.5346 48.2116 99.4971 48.548C99.3846 49.4076 99.2721 50.1177 99.1596 50.6784C99.0846 50.9774 99.0283 51.2764 98.9908 51.5754C98.9533 51.8744 98.9158 52.1734 98.8783 52.4724C98.8033 52.734 98.7471 52.9956 98.7096 53.2573C98.7096 53.4815 98.6908 53.6871 98.6533 53.874C98.6158 54.0608 98.5971 54.229 98.5971 54.3785C98.5971 54.528 98.5783 54.6589 98.5408 54.771C98.5408 54.8457 98.5221 54.9018 98.4845 54.9392C98.4845 54.9392 98.4845 54.9579 98.4845 54.9952V55.0513C98.5221 55.0513 98.5408 55.0326 98.5408 54.9952C98.5408 54.9205 98.5596 54.8457 98.5971 54.771C98.6346 54.6962 98.6533 54.5841 98.6533 54.4346C98.6908 54.2477 98.7471 54.0608 98.8221 53.874C98.8971 53.6871 98.9533 53.4815 98.9908 53.2573C99.0658 53.033 99.1408 52.7901 99.2158 52.5284C99.2908 52.2668 99.3471 51.9865 99.3846 51.6875C99.4596 51.3885 99.5158 51.0895 99.5533 50.7905C99.6283 50.4915 99.7034 50.1738 99.7784 49.8374C99.8909 49.4637 99.9846 49.0899 100.06 48.7161C100.135 48.3424 100.21 47.9499 100.285 47.5388C100.398 47.1277 100.51 46.7166 100.623 46.3054C100.66 46.1185 100.698 45.9317 100.735 45.7448C100.773 45.5205 100.81 45.315 100.848 45.1281L101.016 44.4553C101.054 44.3432 101.073 44.2311 101.073 44.119C101.073 44.0068 101.091 43.8947 101.129 43.7826C101.204 43.3714 101.298 42.9603 101.41 42.5492C101.523 42.1007 101.616 41.6522 101.691 41.2037C101.766 40.7925 101.841 40.3627 101.916 39.9142C101.991 39.4657 102.066 39.0359 102.141 38.6247C102.179 38.4005 102.216 38.1762 102.254 37.952C102.291 37.7277 102.329 37.5222 102.366 37.3353ZM107.148 46.9221C107.56 46.8847 107.879 46.7352 108.104 46.4736C108.367 46.1746 108.46 45.8195 108.385 45.4084L108.048 43.7826C107.898 43.2593 107.635 42.7734 107.26 42.3249C106.923 41.8764 106.51 41.5214 106.023 41.2597C106.473 40.9981 106.96 40.8673 107.485 40.8673L105.685 31.2805L103.885 40.8673C104.373 40.8673 104.879 40.9981 105.404 41.2597C104.879 41.5214 104.429 41.8764 104.054 42.3249C103.716 42.7734 103.491 43.2593 103.379 43.7826L103.098 45.4084C103.023 45.8195 103.098 46.1746 103.323 46.4736C103.548 46.7352 103.848 46.8847 104.223 46.9221H107.148ZM112.829 54.771C112.829 54.8457 112.829 54.9018 112.829 54.9392C112.867 54.9392 112.886 54.9579 112.886 54.9952V54.771C112.848 54.6589 112.829 54.528 112.829 54.3785C112.829 54.229 112.811 54.0608 112.773 53.874C112.736 53.6871 112.698 53.4815 112.661 53.2573C112.661 52.9956 112.623 52.734 112.548 52.4724C112.511 52.1734 112.473 51.8744 112.436 51.5754C112.398 51.2764 112.342 50.9774 112.267 50.6784C112.154 50.1177 112.042 49.4076 111.929 48.548C111.854 48.2116 111.779 47.8378 111.704 47.4267C111.667 47.0156 111.611 46.6044 111.536 46.1933C111.461 45.969 111.404 45.7635 111.367 45.5766C111.367 45.3897 111.329 45.1842 111.254 44.9599C111.254 44.8104 111.217 44.5861 111.142 44.2871C111.142 44.175 111.123 44.0816 111.086 44.0068C111.086 43.8947 111.086 43.7826 111.086 43.6704C111.011 43.2593 110.917 42.8295 110.804 42.381C110.729 41.9325 110.654 41.5027 110.579 41.0915C110.504 40.643 110.411 40.1945 110.298 39.746C110.223 39.2975 110.129 38.8677 110.017 38.4566C109.979 38.2323 109.942 38.0267 109.904 37.8399C109.867 37.6156 109.829 37.3914 109.792 37.1671C109.717 36.9429 109.66 36.7373 109.623 36.5504C109.585 36.3635 109.548 36.158 109.51 35.9337C109.323 35.0741 109.135 34.2892 108.948 33.5791C108.798 32.8315 108.667 32.1401 108.554 31.5047C108.479 31.2057 108.404 30.9067 108.329 30.6077C108.254 30.3087 108.179 30.0097 108.104 29.7107C108.029 29.4864 107.954 29.2622 107.879 29.0379C107.842 28.7763 107.785 28.552 107.71 28.3652C107.673 28.1783 107.635 28.0101 107.598 27.8606C107.56 27.7111 107.523 27.5803 107.485 27.4682L107.429 27.2439V27.4682C107.467 27.655 107.523 27.9727 107.598 28.4212C107.598 28.6081 107.617 28.8137 107.654 29.0379C107.692 29.2622 107.729 29.5051 107.767 29.7667C107.804 30.0658 107.842 30.3648 107.879 30.6638C107.917 30.9628 107.973 31.2618 108.048 31.5608C108.16 32.1962 108.273 32.9063 108.385 33.6912C108.498 34.4387 108.629 35.2423 108.779 36.1019C108.817 36.2888 108.835 36.4943 108.835 36.7186C108.873 36.9055 108.929 37.111 109.004 37.3353C109.042 37.5222 109.079 37.7277 109.117 37.952C109.154 38.1762 109.192 38.4005 109.229 38.6247C109.304 39.0359 109.379 39.4657 109.454 39.9142C109.567 40.3627 109.66 40.7925 109.735 41.2037C109.81 41.6522 109.904 42.1007 110.017 42.5492C110.129 42.9603 110.223 43.3714 110.298 43.7826C110.336 43.8947 110.354 44.0068 110.354 44.119C110.354 44.2311 110.373 44.3432 110.411 44.4553L110.579 45.1281C110.617 45.315 110.654 45.5205 110.692 45.7448C110.729 45.9317 110.767 46.1185 110.804 46.3054C110.917 46.7166 111.011 47.1277 111.086 47.5388C111.161 47.9499 111.236 48.3424 111.311 48.7161C111.386 49.0899 111.461 49.4637 111.536 49.8374C111.648 50.1738 111.742 50.4915 111.817 50.7905C111.892 51.0895 111.967 51.3885 112.042 51.6875C112.117 51.9865 112.192 52.2668 112.267 52.5284C112.379 53.0517 112.492 53.5002 112.604 53.874C112.679 54.0608 112.717 54.2477 112.717 54.4346C112.754 54.5841 112.792 54.6962 112.829 54.771Z" fill="#F4EDE8"/>
<path d="M139.468 63.1244C139.881 63.1992 140.162 63.33 140.312 63.5169C140.499 63.7037 140.631 63.8906 140.706 64.0775C140.781 64.3017 140.818 64.5447 140.818 64.8063C139.618 64.8063 138.493 64.6568 137.443 64.3578C136.393 64.0588 135.455 63.5729 134.63 62.9002C133.843 62.2274 133.205 61.3491 132.718 60.2652C132.268 59.1813 132.043 57.8545 132.043 56.2847V48.604C132.043 48.1181 132.024 47.5201 131.986 46.81C131.949 46.0999 131.818 45.4271 131.593 44.7917C131.368 44.1563 131.011 43.6144 130.524 43.1659C130.074 42.68 129.399 42.4371 128.499 42.4371H126.192C125.855 42.5118 125.555 42.6987 125.292 42.9977C125.067 43.2593 124.955 43.577 124.955 43.9508V57.3499C124.955 58.0227 125.011 58.5272 125.124 58.8636C125.274 59.1626 125.424 59.4055 125.574 59.5924C125.724 59.7419 125.855 59.8914 125.967 60.0409C126.117 60.1904 126.192 60.4334 126.192 60.7698H123.211C122.986 60.7698 122.78 60.6763 122.592 60.4894C122.405 60.3026 122.311 60.097 122.311 59.8727C122.311 60.097 122.217 60.3026 122.03 60.4894C121.88 60.6763 121.673 60.7698 121.411 60.7698H118.486C118.486 60.4334 118.542 60.1904 118.654 60.0409C118.804 59.8914 118.955 59.7419 119.105 59.5924C119.255 59.4055 119.386 59.1626 119.498 58.8636C119.648 58.5646 119.723 58.0974 119.723 57.462V43.7826C119.611 42.6239 119.086 41.783 118.148 41.2597C118.561 40.9981 119.086 40.8673 119.723 40.8673V24.8332C119.723 24.1978 119.648 23.7306 119.498 23.4316C119.386 23.1326 119.255 22.9083 119.105 22.7588C118.955 22.572 118.804 22.4038 118.654 22.2543C118.542 22.1048 118.486 21.8618 118.486 21.5254H121.467C121.692 21.5254 121.898 21.6189 122.086 21.8058C122.273 21.9553 122.367 22.1608 122.367 22.4225C122.367 21.8244 122.667 21.5254 123.267 21.5254H128.555C129.755 21.5254 130.88 21.7497 131.93 22.1982C132.98 22.6467 133.899 23.2634 134.687 24.0483C135.474 24.7958 136.093 25.6928 136.543 26.7393C136.993 27.7858 137.237 28.8884 137.274 30.0471V33.6912C137.274 35.261 136.899 36.6999 136.149 38.0081C135.399 39.3162 134.387 40.3627 133.111 41.1476C134.387 41.8951 135.399 42.9416 136.149 44.2871C136.899 45.5953 137.274 47.0342 137.274 48.604V56.0604C137.274 56.8453 137.274 57.6489 137.274 58.4712C137.312 59.256 137.405 59.9849 137.555 60.6576C137.705 61.293 137.93 61.835 138.23 62.2835C138.53 62.732 138.943 63.0123 139.468 63.1244ZM134.349 32.7381C134.311 32.8129 134.293 32.9063 134.293 33.0184V34.3079C134.255 34.4574 134.236 34.6069 134.236 34.7564C134.236 34.8685 134.236 34.9806 134.236 35.0928C134.236 35.1675 134.218 35.2236 134.18 35.261C134.18 35.2983 134.18 35.3544 134.18 35.4291V35.7655C134.143 35.8403 134.124 35.9337 134.124 36.0458C134.124 36.1206 134.105 36.1953 134.068 36.2701C134.068 36.3448 134.049 36.4009 134.011 36.4383V36.5504L133.955 36.6625C133.955 36.6625 133.993 36.6438 134.068 36.6065V36.5504L134.124 36.4943C134.161 36.457 134.18 36.4383 134.18 36.4383C134.18 36.4009 134.199 36.3635 134.236 36.3262C134.274 36.2514 134.311 36.1767 134.349 36.1019C134.386 35.9898 134.424 35.8963 134.462 35.8216C134.499 35.7468 134.518 35.7095 134.518 35.7095C134.518 35.6721 134.536 35.616 134.574 35.5413C134.612 35.4665 134.63 35.4105 134.63 35.3731C134.63 35.2983 134.649 35.2236 134.687 35.1488C134.724 35.0741 134.743 35.018 134.743 34.9806C134.743 34.9433 134.762 34.8872 134.799 34.8124C134.799 34.7377 134.799 34.6816 134.799 34.6443C134.837 34.5695 134.855 34.4948 134.855 34.42C134.893 34.2705 134.912 34.121 134.912 33.9715C134.949 33.822 134.987 33.6725 135.024 33.523C135.062 33.4109 135.08 33.2427 135.08 33.0184C135.08 32.9437 135.08 32.8689 135.08 32.7942C135.118 32.7194 135.137 32.6447 135.137 32.5699V30.6077C135.137 30.3834 135.118 30.2153 135.08 30.1031V29.8789C135.08 29.8041 135.062 29.7667 135.024 29.7667C135.024 29.7294 135.024 29.6733 135.024 29.5986C135.024 29.4117 134.987 29.1314 134.912 28.7576C134.874 28.6829 134.855 28.6081 134.855 28.5334C134.855 28.4586 134.837 28.3839 134.799 28.3091C134.799 28.2717 134.78 28.253 134.743 28.253C134.743 28.2157 134.743 28.1783 134.743 28.1409C134.743 28.1035 134.724 28.0849 134.687 28.0849C134.687 28.0475 134.687 28.0101 134.687 27.9727C134.649 27.898 134.63 27.8419 134.63 27.8045C134.63 27.7672 134.612 27.7111 134.574 27.6363C134.536 27.5616 134.518 27.5055 134.518 27.4682C134.518 27.4308 134.499 27.3747 134.462 27.3C134.424 27.2626 134.405 27.2252 134.405 27.1878C134.405 27.1505 134.386 27.1131 134.349 27.0757C134.274 26.9262 134.236 26.8515 134.236 26.8515C134.199 26.8141 134.18 26.7954 134.18 26.7954C134.18 26.758 134.161 26.7206 134.124 26.6833C134.086 26.6459 134.068 26.6085 134.068 26.5711C134.03 26.5338 134.011 26.4964 134.011 26.459H133.955C133.955 26.459 133.974 26.4964 134.011 26.5711V26.6833C134.049 26.7206 134.068 26.7954 134.068 26.9075C134.068 26.9449 134.068 26.9823 134.068 27.0196C134.105 27.0196 134.124 27.057 134.124 27.1318C134.124 27.2439 134.143 27.3373 134.18 27.4121V27.6924C134.18 27.7672 134.18 27.8232 134.18 27.8606C134.218 27.898 134.236 27.954 134.236 28.0288C134.236 28.3652 134.255 28.6268 134.293 28.8137V29.7107C134.33 29.8976 134.349 30.1966 134.349 30.6077V32.7381ZM122.761 38.5126C122.761 38.3257 122.742 38.1202 122.705 37.8959C122.705 37.6717 122.705 37.4474 122.705 37.2232V35.9898C122.667 35.1675 122.648 34.3826 122.648 33.6351C122.648 32.8876 122.63 32.1775 122.592 31.5047C122.555 31.2057 122.536 30.9067 122.536 30.6077C122.536 30.3087 122.517 30.0284 122.48 29.7667C122.48 29.4677 122.461 29.2061 122.423 28.9819C122.423 28.7576 122.423 28.552 122.423 28.3652C122.423 28.1783 122.405 28.0101 122.367 27.8606C122.367 27.7111 122.367 27.5803 122.367 27.4682V27.1878C122.33 27.1878 122.311 27.2065 122.311 27.2439V27.4682C122.311 27.5803 122.292 27.7111 122.255 27.8606C122.255 28.0101 122.255 28.1783 122.255 28.3652C122.255 28.552 122.236 28.7576 122.198 28.9819C122.198 29.2061 122.198 29.4677 122.198 29.7667C122.161 30.0284 122.142 30.3087 122.142 30.6077C122.142 30.9067 122.123 31.2057 122.086 31.5047C122.048 32.1775 122.03 32.8876 122.03 33.6351C122.03 34.3826 122.011 35.1675 121.973 35.9898V37.2232C121.973 37.4474 121.955 37.6717 121.917 37.8959C121.917 38.1202 121.917 38.3257 121.917 38.5126V43.7265C121.917 44.0255 121.936 44.2498 121.973 44.3993V46.2494C121.973 46.6605 121.973 47.0716 121.973 47.4828C122.011 47.8565 122.03 48.2303 122.03 48.604C122.03 49.0151 122.03 49.3889 122.03 49.7253C122.067 50.0617 122.086 50.398 122.086 50.7344C122.123 51.0708 122.142 51.3885 122.142 51.6875C122.142 51.9491 122.161 52.2294 122.198 52.5284C122.198 52.7901 122.198 53.033 122.198 53.2573C122.236 53.4815 122.255 53.6871 122.255 53.874C122.255 54.0608 122.255 54.2477 122.255 54.4346C122.292 54.5841 122.311 54.6962 122.311 54.771V55.0513C122.311 55.0887 122.33 55.1074 122.367 55.1074V54.771C122.367 54.6962 122.367 54.5841 122.367 54.4346C122.405 54.2477 122.423 54.0608 122.423 53.874C122.423 53.6871 122.423 53.4815 122.423 53.2573C122.461 53.033 122.48 52.7901 122.48 52.5284C122.517 52.2294 122.536 51.9491 122.536 51.6875C122.536 51.3885 122.555 51.0708 122.592 50.7344C122.592 50.398 122.592 50.0617 122.592 49.7253C122.63 49.3889 122.648 49.0151 122.648 48.604C122.648 48.2303 122.648 47.8565 122.648 47.4828C122.686 47.0716 122.705 46.6605 122.705 46.2494V45.016C122.705 44.717 122.723 44.5114 122.761 44.3993V38.5126ZM132.043 30.2713C132.043 29.7854 132.024 29.1874 131.986 28.4773C131.949 27.7672 131.818 27.0944 131.593 26.459C131.368 25.8236 131.011 25.2817 130.524 24.8332C130.074 24.3473 129.399 24.1044 128.499 24.1044H126.474C126.061 24.1417 125.705 24.3099 125.405 24.6089C125.105 24.9079 124.955 25.263 124.955 25.6741V38.2884C124.955 38.6995 125.105 39.0546 125.405 39.3536C125.705 39.6526 126.061 39.8021 126.474 39.8021H128.499C129.399 39.8021 130.074 39.5778 130.524 39.1293C131.011 38.6808 131.368 38.1389 131.593 37.5035C131.818 36.8307 131.949 36.158 131.986 35.4852C132.024 34.7751 132.043 34.1771 132.043 33.6912V30.2713ZM135.812 60.994C135.812 60.994 135.793 60.9753 135.755 60.9379L135.699 60.8819C135.662 60.8071 135.624 60.7324 135.587 60.6576C135.587 60.5829 135.549 60.5081 135.474 60.4334C135.437 60.3212 135.399 60.2091 135.362 60.097C135.324 59.9475 135.287 59.7793 135.249 59.5924C135.174 59.2187 135.137 58.8636 135.137 58.5272C135.099 58.3403 135.08 58.1535 135.08 57.9666C135.08 57.7423 135.08 57.4994 135.08 57.2378V54.2664C135.08 54.0048 135.08 53.7432 135.08 53.4815C135.08 53.2199 135.099 52.9396 135.137 52.6406C135.137 52.3789 135.137 52.1173 135.137 51.8557C135.137 51.5941 135.118 51.3324 135.08 51.0708V50.2859C135.08 49.9122 135.062 49.6505 135.024 49.501C135.024 49.2394 135.005 48.9965 134.968 48.7722C134.968 48.5106 134.949 48.2676 134.912 48.0434C134.837 47.5201 134.762 47.0716 134.687 46.6979C134.649 46.511 134.612 46.3428 134.574 46.1933C134.536 46.0064 134.48 45.8195 134.405 45.6327C134.33 45.4458 134.274 45.2963 134.236 45.1842C134.199 45.072 134.143 44.9599 134.068 44.8478C133.993 44.7356 133.936 44.6422 133.899 44.5675C133.861 44.4927 133.824 44.418 133.786 44.3432C133.749 44.3432 133.711 44.3245 133.674 44.2871C133.636 44.2871 133.618 44.2685 133.618 44.2311L133.674 44.2871C133.674 44.3245 133.693 44.3619 133.73 44.3993C133.73 44.4366 133.73 44.474 133.73 44.5114C133.768 44.5114 133.786 44.5488 133.786 44.6235C133.824 44.6609 133.843 44.6983 133.843 44.7356C133.843 44.773 133.861 44.8291 133.899 44.9038C133.936 45.0533 133.993 45.315 134.068 45.6887C134.105 45.8756 134.124 46.0625 134.124 46.2494C134.161 46.4362 134.199 46.6231 134.236 46.81C134.236 46.9969 134.236 47.2024 134.236 47.4267C134.274 47.6136 134.293 47.8378 134.293 48.0994V55.0513C134.293 55.2008 134.293 55.3316 134.293 55.4437C134.33 55.5559 134.349 55.6867 134.349 55.8362C134.349 56.0978 134.349 56.3594 134.349 56.6211C134.386 56.8453 134.424 57.0696 134.462 57.2938C134.499 57.5181 134.518 57.7423 134.518 57.9666C134.555 58.1908 134.593 58.3964 134.63 58.5833C134.705 58.8075 134.762 59.0131 134.799 59.2C134.837 59.3495 134.893 59.5177 134.968 59.7046C135.043 59.8914 135.099 60.0409 135.137 60.1531C135.174 60.2652 135.23 60.3773 135.305 60.4894L135.418 60.6016C135.455 60.6389 135.474 60.6763 135.474 60.7137C135.474 60.7137 135.493 60.7324 135.53 60.7698L135.755 60.994H135.812Z" fill="#F4EDE8"/>
<path d="M156.337 33.6912C156.337 35.261 155.962 36.6999 155.212 38.0081C154.462 39.3162 153.449 40.3627 152.174 41.1476C153.449 41.8951 154.462 42.9416 155.212 44.2871C155.962 45.5953 156.337 47.0342 156.337 48.604V52.2481C156.3 53.4442 156.056 54.5654 155.606 55.6119C155.156 56.6211 154.537 57.5181 153.749 58.303C152.962 59.0505 152.043 59.6485 150.993 60.097C149.943 60.5455 148.818 60.7698 147.618 60.7698H142.274C142.049 60.7698 141.843 60.6763 141.655 60.4894C141.468 60.3026 141.374 60.097 141.374 59.8727C141.374 60.097 141.28 60.3026 141.093 60.4894C140.943 60.6763 140.736 60.7698 140.474 60.7698H137.549C137.549 60.4334 137.605 60.1904 137.717 60.0409C137.867 59.8914 138.017 59.7419 138.167 59.5924C138.317 59.4055 138.449 59.1626 138.561 58.8636C138.711 58.5646 138.786 58.0974 138.786 57.462V43.7826C138.674 42.6239 138.149 41.783 137.211 41.2597C137.624 40.9981 138.149 40.8673 138.786 40.8673V24.8332C138.786 24.1978 138.711 23.7306 138.561 23.4316C138.449 23.1326 138.317 22.9083 138.167 22.7588C138.017 22.572 137.867 22.4038 137.717 22.2543C137.605 22.1048 137.549 21.8618 137.549 21.5254H140.53C140.755 21.5254 140.961 21.6189 141.149 21.8058C141.336 21.9553 141.43 22.1608 141.43 22.4225C141.43 21.8244 141.73 21.5254 142.33 21.5254H147.618C148.818 21.5254 149.943 21.7497 150.993 22.1982C152.043 22.6467 152.962 23.2634 153.749 24.0483C154.537 24.7958 155.156 25.6928 155.606 26.7393C156.056 27.7858 156.3 28.8884 156.337 30.0471V33.6912ZM141.824 38.5126C141.824 38.3257 141.805 38.1202 141.768 37.8959C141.768 37.6717 141.768 37.4474 141.768 37.2232V35.9898C141.73 35.1675 141.711 34.3826 141.711 33.6351C141.711 32.8876 141.693 32.1775 141.655 31.5047C141.618 31.2057 141.599 30.9067 141.599 30.6077C141.599 30.3087 141.58 30.0284 141.543 29.7667C141.543 29.4677 141.524 29.2061 141.486 28.9819C141.486 28.7576 141.486 28.552 141.486 28.3652C141.486 28.1783 141.468 28.0101 141.43 27.8606C141.43 27.7111 141.43 27.5803 141.43 27.4682V27.1878C141.393 27.1878 141.374 27.2065 141.374 27.2439V27.4682C141.374 27.5803 141.355 27.7111 141.318 27.8606C141.318 28.0101 141.318 28.1783 141.318 28.3652C141.318 28.552 141.299 28.7576 141.261 28.9819C141.261 29.2061 141.261 29.4677 141.261 29.7667C141.224 30.0284 141.205 30.3087 141.205 30.6077C141.205 30.9067 141.186 31.2057 141.149 31.5047C141.111 32.1775 141.093 32.8876 141.093 33.6351C141.093 34.3826 141.074 35.1675 141.036 35.9898V37.2232C141.036 37.4474 141.018 37.6717 140.98 37.8959C140.98 38.1202 140.98 38.3257 140.98 38.5126V43.7265C140.98 44.0255 140.999 44.2498 141.036 44.3993V46.2494C141.036 46.6605 141.036 47.0716 141.036 47.4828C141.074 47.8565 141.093 48.2303 141.093 48.604C141.093 49.0151 141.093 49.3889 141.093 49.7253C141.13 50.0617 141.149 50.398 141.149 50.7344C141.186 51.0708 141.205 51.3885 141.205 51.6875C141.205 51.9491 141.224 52.2294 141.261 52.5284C141.261 52.7901 141.261 53.033 141.261 53.2573C141.299 53.4815 141.318 53.6871 141.318 53.874C141.318 54.0608 141.318 54.2477 141.318 54.4346C141.355 54.5841 141.374 54.6962 141.374 54.771V55.0513C141.374 55.0887 141.393 55.1074 141.43 55.1074V54.771C141.43 54.6962 141.43 54.5841 141.43 54.4346C141.468 54.2477 141.486 54.0608 141.486 53.874C141.486 53.6871 141.486 53.4815 141.486 53.2573C141.524 53.033 141.543 52.7901 141.543 52.5284C141.58 52.2294 141.599 51.9491 141.599 51.6875C141.599 51.3885 141.618 51.0708 141.655 50.7344C141.655 50.398 141.655 50.0617 141.655 49.7253C141.693 49.3889 141.711 49.0151 141.711 48.604C141.711 48.2303 141.711 47.8565 141.711 47.4828C141.749 47.0716 141.768 46.6605 141.768 46.2494V45.016C141.768 44.717 141.786 44.5114 141.824 44.3993V38.5126ZM153.412 51.5193C153.374 51.5941 153.356 51.6875 153.356 51.7996V53.0891C153.318 53.2386 153.299 53.3881 153.299 53.5376C153.299 53.6497 153.299 53.7618 153.299 53.874C153.299 53.9487 153.281 54.0048 153.243 54.0422C153.243 54.0795 153.243 54.1356 153.243 54.2103V54.5467C153.206 54.6215 153.187 54.7149 153.187 54.827C153.187 54.9018 153.168 54.9765 153.131 55.0513C153.131 55.126 153.112 55.1821 153.074 55.2195V55.3316L153.018 55.4437C153.018 55.4437 153.056 55.4251 153.131 55.3877V55.3316L153.187 55.2755C153.224 55.2382 153.243 55.2195 153.243 55.2195C153.243 55.1821 153.262 55.1447 153.299 55.1074C153.337 55.0326 153.374 54.9579 153.412 54.8831C153.449 54.771 153.487 54.6775 153.524 54.6028C153.562 54.528 153.581 54.4907 153.581 54.4907C153.581 54.4533 153.599 54.3972 153.637 54.3225C153.674 54.2477 153.693 54.1917 153.693 54.1543C153.693 54.1169 153.712 54.0608 153.749 53.9861C153.787 53.9113 153.806 53.8553 153.806 53.8179C153.806 53.7432 153.824 53.6684 153.862 53.5936C153.862 53.5189 153.862 53.4628 153.862 53.4255C153.899 53.3507 153.918 53.276 153.918 53.2012C153.956 53.0517 153.974 52.9022 153.974 52.7527C154.012 52.6032 154.049 52.4537 154.087 52.3042C154.124 52.1921 154.143 52.0239 154.143 51.7996C154.143 51.7249 154.143 51.6501 154.143 51.5754C154.181 51.5006 154.199 51.4259 154.199 51.3511V49.3889C154.199 49.1647 154.181 48.9965 154.143 48.8843V48.6601C154.143 48.5853 154.124 48.548 154.087 48.548C154.087 48.5106 154.087 48.4732 154.087 48.4358C154.087 48.249 154.068 48.0994 154.031 47.9873C154.031 47.8378 154.012 47.6883 153.974 47.5388C153.937 47.4641 153.918 47.3893 153.918 47.3146C153.918 47.2398 153.899 47.1651 153.862 47.0903C153.862 47.0529 153.843 47.0342 153.806 47.0342C153.806 46.9969 153.806 46.9595 153.806 46.9221C153.806 46.8847 153.787 46.8661 153.749 46.8661C153.749 46.8287 153.749 46.7913 153.749 46.7539C153.712 46.6792 153.693 46.6231 153.693 46.5857C153.693 46.5484 153.674 46.4923 153.637 46.4175C153.599 46.3428 153.581 46.2867 153.581 46.2494C153.581 46.212 153.562 46.1559 153.524 46.0812C153.487 46.0438 153.468 46.0064 153.468 45.969C153.468 45.9317 153.449 45.8943 153.412 45.8569C153.337 45.7074 153.299 45.6327 153.299 45.6327C153.262 45.5953 153.243 45.5766 153.243 45.5766C153.243 45.5392 153.224 45.5018 153.187 45.4645C153.149 45.4271 153.131 45.3897 153.131 45.3523L153.018 45.2402C153.018 45.2402 153.037 45.2776 153.074 45.3523V45.4645C153.112 45.5018 153.131 45.5766 153.131 45.6887C153.131 45.7261 153.131 45.7635 153.131 45.8009C153.168 45.8009 153.187 45.8382 153.187 45.913C153.187 46.0251 153.206 46.1185 153.243 46.1933V46.4736C153.243 46.5484 153.243 46.6044 153.243 46.6418C153.281 46.6792 153.299 46.7352 153.299 46.81C153.299 47.1464 153.318 47.408 153.356 47.5949V48.4919C153.393 48.6788 153.412 48.9778 153.412 49.3889V51.5193ZM151.106 48.604C151.106 48.1181 151.087 47.5201 151.049 46.81C151.012 46.0999 150.881 45.4271 150.655 44.7917C150.43 44.1563 150.074 43.6144 149.587 43.1659C149.137 42.68 148.462 42.4371 147.562 42.4371H145.536C145.124 42.4744 144.768 42.6426 144.468 42.9416C144.168 43.2406 144.018 43.5957 144.018 44.0068V56.6211C144.018 57.0322 144.168 57.3873 144.468 57.6863C144.768 57.9853 145.124 58.1348 145.536 58.1348H147.562C148.462 58.1348 149.137 57.9105 149.587 57.462C150.074 57.0135 150.43 56.4716 150.655 55.8362C150.881 55.1634 151.012 54.4907 151.049 53.8179C151.087 53.1078 151.106 52.5098 151.106 52.0239V48.604ZM151.106 30.2713C151.106 29.7854 151.087 29.1874 151.049 28.4773C151.012 27.7672 150.881 27.0944 150.655 26.459C150.43 25.8236 150.074 25.2817 149.587 24.8332C149.137 24.3473 148.462 24.1044 147.562 24.1044H145.536C145.124 24.1417 144.768 24.3099 144.468 24.6089C144.168 24.9079 144.018 25.263 144.018 25.6741V38.2884C144.018 38.6995 144.168 39.0546 144.468 39.3536C144.768 39.6526 145.124 39.8021 145.536 39.8021H147.562C148.462 39.8021 149.137 39.5778 149.587 39.1293C150.074 38.6808 150.43 38.1389 150.655 37.5035C150.881 36.8307 151.012 36.158 151.049 35.4852C151.087 34.7751 151.106 34.1771 151.106 33.6912V30.2713ZM153.524 35.8216C153.562 35.7468 153.581 35.7095 153.581 35.7095C153.581 35.6721 153.599 35.616 153.637 35.5413C153.674 35.4665 153.693 35.4105 153.693 35.3731C153.693 35.2983 153.712 35.2236 153.749 35.1488C153.787 35.0741 153.806 35.018 153.806 34.9806C153.806 34.9433 153.824 34.8872 153.862 34.8124C153.862 34.7377 153.862 34.6816 153.862 34.6443C153.899 34.5695 153.918 34.4948 153.918 34.42C153.956 34.2705 153.974 34.121 153.974 33.9715C154.012 33.822 154.049 33.6725 154.087 33.523C154.124 33.4109 154.143 33.2427 154.143 33.0184C154.143 32.9437 154.143 32.8689 154.143 32.7942C154.181 32.7194 154.199 32.6447 154.199 32.5699V30.6077C154.199 30.3834 154.181 30.2153 154.143 30.1031V29.8789C154.143 29.8041 154.124 29.7667 154.087 29.7667C154.087 29.7294 154.087 29.6733 154.087 29.5986C154.087 29.4117 154.049 29.1314 153.974 28.7576C153.937 28.6829 153.918 28.6081 153.918 28.5334C153.918 28.4586 153.899 28.3839 153.862 28.3091C153.862 28.2717 153.843 28.253 153.806 28.253C153.806 28.2157 153.806 28.1783 153.806 28.1409C153.806 28.1035 153.787 28.0849 153.749 28.0849C153.749 28.0475 153.749 28.0101 153.749 27.9727C153.712 27.898 153.693 27.8419 153.693 27.8045C153.693 27.7672 153.674 27.7111 153.637 27.6363C153.599 27.5616 153.581 27.5055 153.581 27.4682C153.581 27.4308 153.562 27.3747 153.524 27.3C153.487 27.2626 153.468 27.2252 153.468 27.1878C153.468 27.1505 153.449 27.1131 153.412 27.0757C153.337 26.9262 153.299 26.8515 153.299 26.8515C153.262 26.8141 153.243 26.7954 153.243 26.7954C153.243 26.758 153.224 26.7206 153.187 26.6833C153.149 26.6459 153.131 26.6085 153.131 26.5711C153.093 26.5338 153.074 26.4964 153.074 26.459H153.018C153.018 26.459 153.037 26.4964 153.074 26.5711V26.6833C153.112 26.7206 153.131 26.7954 153.131 26.9075C153.131 26.9449 153.131 26.9823 153.131 27.0196C153.168 27.0196 153.187 27.057 153.187 27.1318C153.187 27.2439 153.206 27.3373 153.243 27.4121V27.6924C153.243 27.7672 153.243 27.8232 153.243 27.8606C153.281 27.898 153.299 27.954 153.299 28.0288C153.299 28.3652 153.318 28.6268 153.356 28.8137V29.7107C153.393 29.8976 153.412 30.1966 153.412 30.6077V32.7381C153.374 32.8129 153.356 32.9063 153.356 33.0184V34.3079C153.318 34.4574 153.299 34.6069 153.299 34.7564C153.299 34.8685 153.299 34.9806 153.299 35.0928C153.299 35.1675 153.281 35.2236 153.243 35.261C153.243 35.2983 153.243 35.3544 153.243 35.4291V35.7655C153.206 35.8403 153.187 35.9337 153.187 36.0458C153.187 36.1206 153.168 36.1953 153.131 36.2701C153.131 36.3448 153.112 36.4009 153.074 36.4383V36.5504L153.018 36.6625C153.018 36.6625 153.056 36.6438 153.131 36.6065V36.5504L153.187 36.4943C153.224 36.457 153.243 36.4383 153.243 36.4383C153.243 36.4009 153.262 36.3635 153.299 36.3262C153.337 36.2514 153.374 36.1767 153.412 36.1019C153.449 35.9898 153.487 35.8963 153.524 35.8216Z" fill="#F4EDE8"/>
<path d="M175.509 57.3499C175.509 58.0227 175.566 58.5272 175.678 58.8636C175.828 59.1626 175.978 59.4055 176.128 59.5924C176.278 59.7419 176.409 59.8914 176.522 60.0409C176.672 60.1904 176.747 60.4334 176.747 60.7698H161.446C161.221 60.7698 161.015 60.6763 160.827 60.4894C160.64 60.3026 160.546 60.097 160.546 59.8727C160.546 60.097 160.452 60.3026 160.265 60.4894C160.115 60.6763 159.909 60.7698 159.646 60.7698H156.721C156.721 60.4334 156.777 60.1904 156.89 60.0409C157.04 59.8914 157.19 59.7419 157.34 59.5924C157.49 59.4055 157.621 59.1626 157.734 58.8636C157.884 58.5646 157.959 58.0974 157.959 57.462V43.7826C157.846 42.6239 157.321 41.783 156.383 41.2597C156.796 40.9981 157.321 40.8673 157.959 40.8673V24.8332C157.959 24.1978 157.884 23.7306 157.734 23.4316C157.621 23.1326 157.49 22.9083 157.34 22.7588C157.19 22.572 157.04 22.4038 156.89 22.2543C156.777 22.1048 156.721 21.8618 156.721 21.5254H159.702C159.927 21.5254 160.134 21.6189 160.321 21.8058C160.509 21.9553 160.602 22.1608 160.602 22.4225C160.602 21.8244 160.902 21.5254 161.502 21.5254H176.747C176.747 21.8618 176.672 22.1048 176.522 22.2543C176.409 22.4038 176.278 22.572 176.128 22.7588C175.978 22.9083 175.828 23.1513 175.678 23.4877C175.566 23.7867 175.509 24.2725 175.509 24.9453V32.4017C174.197 32.4017 173.184 32.1588 172.472 31.6729C171.797 31.1496 171.29 30.5703 170.953 29.9349C170.54 29.2248 170.315 28.3839 170.278 27.4121V25.6741C170.278 25.263 170.128 24.9079 169.828 24.6089C169.528 24.3099 169.172 24.1417 168.759 24.1044H164.709C164.296 24.1417 163.94 24.3099 163.64 24.6089C163.34 24.9079 163.19 25.263 163.19 25.6741V38.2884C163.19 38.6995 163.34 39.0546 163.64 39.3536C163.94 39.6526 164.296 39.8021 164.709 39.8021H165.103C165.515 39.8021 165.853 39.6526 166.115 39.3536C166.415 39.0546 166.565 38.6995 166.565 38.2884V38.2323C166.603 37.6717 166.753 37.1858 167.015 36.7747C167.24 36.4009 167.578 36.0645 168.028 35.7655C168.478 35.4665 169.134 35.317 169.997 35.317V46.9221C169.134 46.9221 168.478 46.7726 168.028 46.4736C167.578 46.1746 167.24 45.8382 167.015 45.4645C166.753 45.0533 166.603 44.5675 166.565 44.0068C166.565 43.5957 166.415 43.2406 166.115 42.9416C165.853 42.6426 165.515 42.4744 165.103 42.4371H164.709C164.296 42.4744 163.94 42.6426 163.64 42.9416C163.34 43.2406 163.19 43.5957 163.19 44.0068V56.6211C163.19 57.0322 163.34 57.3873 163.64 57.6863C163.94 57.9853 164.296 58.1348 164.709 58.1348H168.759C169.172 58.1348 169.528 57.9853 169.828 57.6863C170.128 57.3873 170.278 57.0322 170.278 56.6211V54.827C170.315 53.8927 170.54 53.0704 170.953 52.3603C171.29 51.7249 171.797 51.1456 172.472 50.6223C173.184 50.099 174.197 49.8374 175.509 49.8374V57.3499ZM160.996 38.5126C160.996 38.3257 160.977 38.1202 160.94 37.8959C160.94 37.6717 160.94 37.4474 160.94 37.2232V35.9898C160.902 35.1675 160.884 34.3826 160.884 33.6351C160.884 32.8876 160.865 32.1775 160.827 31.5047C160.79 31.2057 160.771 30.9067 160.771 30.6077C160.771 30.3087 160.752 30.0284 160.715 29.7667C160.715 29.4677 160.696 29.2061 160.659 28.9819C160.659 28.7576 160.659 28.552 160.659 28.3652C160.659 28.1783 160.64 28.0101 160.602 27.8606C160.602 27.7111 160.602 27.5803 160.602 27.4682V27.1878C160.565 27.1878 160.546 27.2065 160.546 27.2439V27.4682C160.546 27.5803 160.527 27.7111 160.49 27.8606C160.49 28.0101 160.49 28.1783 160.49 28.3652C160.49 28.552 160.471 28.7576 160.434 28.9819C160.434 29.2061 160.434 29.4677 160.434 29.7667C160.396 30.0284 160.377 30.3087 160.377 30.6077C160.377 30.9067 160.359 31.2057 160.321 31.5047C160.284 32.1775 160.265 32.8876 160.265 33.6351C160.265 34.3826 160.246 35.1675 160.209 35.9898V37.2232C160.209 37.4474 160.19 37.6717 160.152 37.8959C160.152 38.1202 160.152 38.3257 160.152 38.5126V43.7265C160.152 44.0255 160.171 44.2498 160.209 44.3993V46.2494C160.209 46.6605 160.209 47.0716 160.209 47.4828C160.246 47.8565 160.265 48.2303 160.265 48.604C160.265 49.0151 160.265 49.3889 160.265 49.7253C160.302 50.0617 160.321 50.398 160.321 50.7344C160.359 51.0708 160.377 51.3885 160.377 51.6875C160.377 51.9491 160.396 52.2294 160.434 52.5284C160.434 52.7901 160.434 53.033 160.434 53.2573C160.471 53.4815 160.49 53.6871 160.49 53.874C160.49 54.0608 160.49 54.2477 160.49 54.4346C160.527 54.5841 160.546 54.6962 160.546 54.771V55.0513C160.546 55.0887 160.565 55.1074 160.602 55.1074V54.771C160.602 54.6962 160.602 54.5841 160.602 54.4346C160.64 54.2477 160.659 54.0608 160.659 53.874C160.659 53.6871 160.659 53.4815 160.659 53.2573C160.696 53.033 160.715 52.7901 160.715 52.5284C160.752 52.2294 160.771 51.9491 160.771 51.6875C160.771 51.3885 160.79 51.0708 160.827 50.7344C160.827 50.398 160.827 50.0617 160.827 49.7253C160.865 49.3889 160.884 49.0151 160.884 48.604C160.884 48.2303 160.884 47.8565 160.884 47.4828C160.921 47.0716 160.94 46.6605 160.94 46.2494V45.016C160.94 44.717 160.959 44.5114 160.996 44.3993V38.5126Z" fill="#F4EDE8"/>
<path d="M198.138 63.1244C198.55 63.1992 198.832 63.33 198.982 63.5169C199.169 63.7037 199.3 63.8906 199.375 64.0775C199.45 64.3017 199.488 64.5447 199.488 64.8063C198.288 64.8063 197.163 64.6568 196.113 64.3578C195.063 64.0588 194.125 63.5729 193.3 62.9002C192.513 62.2274 191.875 61.3491 191.387 60.2652C190.937 59.1813 190.712 57.8545 190.712 56.2847V48.604C190.712 48.1181 190.694 47.5201 190.656 46.81C190.619 46.0999 190.487 45.4271 190.262 44.7917C190.037 44.1563 189.681 43.6144 189.194 43.1659C188.744 42.68 188.069 42.4371 187.169 42.4371H184.862C184.525 42.5118 184.225 42.6987 183.962 42.9977C183.737 43.2593 183.625 43.577 183.625 43.9508V57.3499C183.625 58.0227 183.681 58.5272 183.793 58.8636C183.943 59.1626 184.093 59.4055 184.243 59.5924C184.393 59.7419 184.525 59.8914 184.637 60.0409C184.787 60.1904 184.862 60.4334 184.862 60.7698H181.881C181.656 60.7698 181.449 60.6763 181.262 60.4894C181.074 60.3026 180.981 60.097 180.981 59.8727C180.981 60.097 180.887 60.3026 180.699 60.4894C180.549 60.6763 180.343 60.7698 180.081 60.7698H177.156C177.156 60.4334 177.212 60.1904 177.324 60.0409C177.474 59.8914 177.624 59.7419 177.774 59.5924C177.924 59.4055 178.056 59.1626 178.168 58.8636C178.318 58.5646 178.393 58.0974 178.393 57.462V43.7826C178.281 42.6239 177.756 41.783 176.818 41.2597C177.231 40.9981 177.756 40.8673 178.393 40.8673V24.8332C178.393 24.1978 178.318 23.7306 178.168 23.4316C178.056 23.1326 177.924 22.9083 177.774 22.7588C177.624 22.572 177.474 22.4038 177.324 22.2543C177.212 22.1048 177.156 21.8618 177.156 21.5254H180.137C180.362 21.5254 180.568 21.6189 180.756 21.8058C180.943 21.9553 181.037 22.1608 181.037 22.4225C181.037 21.8244 181.337 21.5254 181.937 21.5254H187.225C188.425 21.5254 189.55 21.7497 190.6 22.1982C191.65 22.6467 192.569 23.2634 193.356 24.0483C194.144 24.7958 194.763 25.6928 195.213 26.7393C195.663 27.7858 195.906 28.8884 195.944 30.0471V33.6912C195.944 35.261 195.569 36.6999 194.819 38.0081C194.069 39.3162 193.056 40.3627 191.781 41.1476C193.056 41.8951 194.069 42.9416 194.819 44.2871C195.569 45.5953 195.944 47.0342 195.944 48.604V56.0604C195.944 56.8453 195.944 57.6489 195.944 58.4712C195.981 59.256 196.075 59.9849 196.225 60.6576C196.375 61.293 196.6 61.835 196.9 62.2835C197.2 62.732 197.613 63.0123 198.138 63.1244ZM193.019 32.7381C192.981 32.8129 192.963 32.9063 192.963 33.0184V34.3079C192.925 34.4574 192.906 34.6069 192.906 34.7564C192.906 34.8685 192.906 34.9806 192.906 35.0928C192.906 35.1675 192.888 35.2236 192.85 35.261C192.85 35.2983 192.85 35.3544 192.85 35.4291V35.7655C192.813 35.8403 192.794 35.9337 192.794 36.0458C192.794 36.1206 192.775 36.1953 192.738 36.2701C192.738 36.3448 192.719 36.4009 192.681 36.4383V36.5504L192.625 36.6625C192.625 36.6625 192.663 36.6438 192.738 36.6065V36.5504L192.794 36.4943C192.831 36.457 192.85 36.4383 192.85 36.4383C192.85 36.4009 192.869 36.3635 192.906 36.3262C192.944 36.2514 192.981 36.1767 193.019 36.1019C193.056 35.9898 193.094 35.8963 193.131 35.8216C193.169 35.7468 193.188 35.7095 193.188 35.7095C193.188 35.6721 193.206 35.616 193.244 35.5413C193.281 35.4665 193.3 35.4105 193.3 35.3731C193.3 35.2983 193.319 35.2236 193.356 35.1488C193.394 35.0741 193.413 35.018 193.413 34.9806C193.413 34.9433 193.431 34.8872 193.469 34.8124C193.469 34.7377 193.469 34.6816 193.469 34.6443C193.506 34.5695 193.525 34.4948 193.525 34.42C193.563 34.2705 193.581 34.121 193.581 33.9715C193.619 33.822 193.656 33.6725 193.694 33.523C193.731 33.4109 193.75 33.2427 193.75 33.0184C193.75 32.9437 193.75 32.8689 193.75 32.7942C193.788 32.7194 193.806 32.6447 193.806 32.5699V30.6077C193.806 30.3834 193.788 30.2153 193.75 30.1031V29.8789C193.75 29.8041 193.731 29.7667 193.694 29.7667C193.694 29.7294 193.694 29.6733 193.694 29.5986C193.694 29.4117 193.656 29.1314 193.581 28.7576C193.544 28.6829 193.525 28.6081 193.525 28.5334C193.525 28.4586 193.506 28.3839 193.469 28.3091C193.469 28.2717 193.45 28.253 193.413 28.253C193.413 28.2157 193.413 28.1783 193.413 28.1409C193.413 28.1035 193.394 28.0849 193.356 28.0849C193.356 28.0475 193.356 28.0101 193.356 27.9727C193.319 27.898 193.3 27.8419 193.3 27.8045C193.3 27.7672 193.281 27.7111 193.244 27.6363C193.206 27.5616 193.188 27.5055 193.188 27.4682C193.188 27.4308 193.169 27.3747 193.131 27.3C193.094 27.2626 193.075 27.2252 193.075 27.1878C193.075 27.1505 193.056 27.1131 193.019 27.0757C192.944 26.9262 192.906 26.8515 192.906 26.8515C192.869 26.8141 192.85 26.7954 192.85 26.7954C192.85 26.758 192.831 26.7206 192.794 26.6833C192.756 26.6459 192.738 26.6085 192.738 26.5711C192.7 26.5338 192.681 26.4964 192.681 26.459H192.625C192.625 26.459 192.644 26.4964 192.681 26.5711V26.6833C192.719 26.7206 192.738 26.7954 192.738 26.9075C192.738 26.9449 192.738 26.9823 192.738 27.0196C192.775 27.0196 192.794 27.057 192.794 27.1318C192.794 27.2439 192.813 27.3373 192.85 27.4121V27.6924C192.85 27.7672 192.85 27.8232 192.85 27.8606C192.888 27.898 192.906 27.954 192.906 28.0288C192.906 28.3652 192.925 28.6268 192.963 28.8137V29.7107C193 29.8976 193.019 30.1966 193.019 30.6077V32.7381ZM181.431 38.5126C181.431 38.3257 181.412 38.1202 181.374 37.8959C181.374 37.6717 181.374 37.4474 181.374 37.2232V35.9898C181.337 35.1675 181.318 34.3826 181.318 33.6351C181.318 32.8876 181.299 32.1775 181.262 31.5047C181.224 31.2057 181.206 30.9067 181.206 30.6077C181.206 30.3087 181.187 30.0284 181.149 29.7667C181.149 29.4677 181.131 29.2061 181.093 28.9819C181.093 28.7576 181.093 28.552 181.093 28.3652C181.093 28.1783 181.074 28.0101 181.037 27.8606C181.037 27.7111 181.037 27.5803 181.037 27.4682V27.1878C180.999 27.1878 180.981 27.2065 180.981 27.2439V27.4682C180.981 27.5803 180.962 27.7111 180.924 27.8606C180.924 28.0101 180.924 28.1783 180.924 28.3652C180.924 28.552 180.906 28.7576 180.868 28.9819C180.868 29.2061 180.868 29.4677 180.868 29.7667C180.831 30.0284 180.812 30.3087 180.812 30.6077C180.812 30.9067 180.793 31.2057 180.756 31.5047C180.718 32.1775 180.699 32.8876 180.699 33.6351C180.699 34.3826 180.681 35.1675 180.643 35.9898V37.2232C180.643 37.4474 180.624 37.6717 180.587 37.8959C180.587 38.1202 180.587 38.3257 180.587 38.5126V43.7265C180.587 44.0255 180.606 44.2498 180.643 44.3993V46.2494C180.643 46.6605 180.643 47.0716 180.643 47.4828C180.681 47.8565 180.699 48.2303 180.699 48.604C180.699 49.0151 180.699 49.3889 180.699 49.7253C180.737 50.0617 180.756 50.398 180.756 50.7344C180.793 51.0708 180.812 51.3885 180.812 51.6875C180.812 51.9491 180.831 52.2294 180.868 52.5284C180.868 52.7901 180.868 53.033 180.868 53.2573C180.906 53.4815 180.924 53.6871 180.924 53.874C180.924 54.0608 180.924 54.2477 180.924 54.4346C180.962 54.5841 180.981 54.6962 180.981 54.771V55.0513C180.981 55.0887 180.999 55.1074 181.037 55.1074V54.771C181.037 54.6962 181.037 54.5841 181.037 54.4346C181.074 54.2477 181.093 54.0608 181.093 53.874C181.093 53.6871 181.093 53.4815 181.093 53.2573C181.131 53.033 181.149 52.7901 181.149 52.5284C181.187 52.2294 181.206 51.9491 181.206 51.6875C181.206 51.3885 181.224 51.0708 181.262 50.7344C181.262 50.398 181.262 50.0617 181.262 49.7253C181.299 49.3889 181.318 49.0151 181.318 48.604C181.318 48.2303 181.318 47.8565 181.318 47.4828C181.356 47.0716 181.374 46.6605 181.374 46.2494V45.016C181.374 44.717 181.393 44.5114 181.431 44.3993V38.5126ZM190.712 30.2713C190.712 29.7854 190.694 29.1874 190.656 28.4773C190.619 27.7672 190.487 27.0944 190.262 26.459C190.037 25.8236 189.681 25.2817 189.194 24.8332C188.744 24.3473 188.069 24.1044 187.169 24.1044H185.143C184.731 24.1417 184.375 24.3099 184.075 24.6089C183.775 24.9079 183.625 25.263 183.625 25.6741V38.2884C183.625 38.6995 183.775 39.0546 184.075 39.3536C184.375 39.6526 184.731 39.8021 185.143 39.8021H187.169C188.069 39.8021 188.744 39.5778 189.194 39.1293C189.681 38.6808 190.037 38.1389 190.262 37.5035C190.487 36.8307 190.619 36.158 190.656 35.4852C190.694 34.7751 190.712 34.1771 190.712 33.6912V30.2713ZM194.481 60.994C194.481 60.994 194.463 60.9753 194.425 60.9379L194.369 60.8819C194.331 60.8071 194.294 60.7324 194.256 60.6576C194.256 60.5829 194.219 60.5081 194.144 60.4334C194.106 60.3212 194.069 60.2091 194.031 60.097C193.994 59.9475 193.956 59.7793 193.919 59.5924C193.844 59.2187 193.806 58.8636 193.806 58.5272C193.769 58.3403 193.75 58.1535 193.75 57.9666C193.75 57.7423 193.75 57.4994 193.75 57.2378V54.2664C193.75 54.0048 193.75 53.7432 193.75 53.4815C193.75 53.2199 193.769 52.9396 193.806 52.6406C193.806 52.3789 193.806 52.1173 193.806 51.8557C193.806 51.5941 193.788 51.3324 193.75 51.0708V50.2859C193.75 49.9122 193.731 49.6505 193.694 49.501C193.694 49.2394 193.675 48.9965 193.638 48.7722C193.638 48.5106 193.619 48.2676 193.581 48.0434C193.506 47.5201 193.431 47.0716 193.356 46.6979C193.319 46.511 193.281 46.3428 193.244 46.1933C193.206 46.0064 193.15 45.8195 193.075 45.6327C193 45.4458 192.944 45.2963 192.906 45.1842C192.869 45.072 192.813 44.9599 192.738 44.8478C192.663 44.7356 192.606 44.6422 192.569 44.5675C192.531 44.4927 192.494 44.418 192.456 44.3432C192.419 44.3432 192.381 44.3245 192.344 44.2871C192.306 44.2871 192.288 44.2685 192.288 44.2311L192.344 44.2871C192.344 44.3245 192.363 44.3619 192.4 44.3993C192.4 44.4366 192.4 44.474 192.4 44.5114C192.438 44.5114 192.456 44.5488 192.456 44.6235C192.494 44.6609 192.513 44.6983 192.513 44.7356C192.513 44.773 192.531 44.8291 192.569 44.9038C192.606 45.0533 192.663 45.315 192.738 45.6887C192.775 45.8756 192.794 46.0625 192.794 46.2494C192.831 46.4362 192.869 46.6231 192.906 46.81C192.906 46.9969 192.906 47.2024 192.906 47.4267C192.944 47.6136 192.963 47.8378 192.963 48.0994V55.0513C192.963 55.2008 192.963 55.3316 192.963 55.4437C193 55.5559 193.019 55.6867 193.019 55.8362C193.019 56.0978 193.019 56.3594 193.019 56.6211C193.056 56.8453 193.094 57.0696 193.131 57.2938C193.169 57.5181 193.188 57.7423 193.188 57.9666C193.225 58.1908 193.263 58.3964 193.3 58.5833C193.375 58.8075 193.431 59.0131 193.469 59.2C193.506 59.3495 193.563 59.5177 193.638 59.7046C193.713 59.8914 193.769 60.0409 193.806 60.1531C193.844 60.2652 193.9 60.3773 193.975 60.4894L194.088 60.6016C194.125 60.6389 194.144 60.6763 194.144 60.7137C194.144 60.7137 194.163 60.7324 194.2 60.7698L194.425 60.994H194.481Z" fill="#F4EDE8"/>
<path d="M210.947 39.0254C212.611 39.0254 213.961 40.3701 213.961 42.0288C213.961 43.6876 212.611 45.0322 210.947 45.0322C209.283 45.0322 207.934 43.6876 207.934 42.0288C207.934 40.3701 209.283 39.0254 210.947 39.0254Z" fill="#999591"/>
<path d="M19.0858 39.0254C20.7501 39.0254 22.0993 40.3701 22.0993 42.0288C22.0993 43.6876 20.7501 45.0322 19.0858 45.0322C17.4215 45.0322 16.0723 43.6876 16.0723 42.0288C16.0723 40.3701 17.4215 39.0254 19.0858 39.0254Z" fill="#999591"/>
</svg>
